# xmcd
#
# Track frame offsets: 
#        150
#        18172
#        34801
#        58707
#        81547
#        100361
#        116996
#        139532
#        155283
#        175572
#
# Disc length: 2649 seconds
#
# Revision: 0
# Processed by: cddbd v1.5.2PL0 Copyright (c) Steve Scherf et al.
# Submitted via: ExactAudioCopy v1.0b1
#
DISCID=7d0a570a
DTITLE=Jordan Officer - I'm Free
DYEAR=2021
DGENRE=Blues
TTITLE0=At Least I've Got the Blues
TTITLE1=A Night of Fun
TTITLE2=I'm Free
TTITLE3=When We Were Just Two
TTITLE4=I'm All Alone
TTITLE5=Jackie's Tune
TTITLE6=Two Will Do
TTITLE7=Life Just Showed Me
TTITLE8=Ain't Nobody's Business
TTITLE9=Hang 'em High
EXTD=
EXTT0=
EXTT1=
EXTT2=
EXTT3=
EXTT4=
EXTT5=
EXTT6=
EXTT7=
EXTT8=
EXTT9=
PLAYORDER=
